HIERARCHY
ROOT Hips
{
    OFFSET 0.000000 0.000000 0.000000
    CHANNELS 6 Xposition Yposition Zposition Zrotation Xrotation Yrotation
    JOINT Spine
    {
        OFFSET -0.000000 7.583482 0.000000
        CHANNELS 3 Zrotation Xrotation Yrotation
        JOINT Spine1
        {
            OFFSET -0.000000 19.647881 0.000000
            CHANNELS 3 Zrotation Xrotation Yrotation
            JOINT Neck
            {
                OFFSET -0.000000 19.567190 1.778835
                CHANNELS 3 Zrotation Xrotation Yrotation
                JOINT Head
                {
                    OFFSET -0.000000 12.947408 -1.849630
                    CHANNELS 3 Zrotation Xrotation Yrotation
                    End Site
                    {
                        OFFSET -0.000000 23.120371 0.000000
                    }
                }
            }
            JOINT LeftShoulder
            {
                OFFSET 3.632882 16.008181 -0.342244
                CHANNELS 3 Zrotation Xrotation Yrotation
                JOINT LeftArm
                {
                    OFFSET 15.804684 0.000000 0.000000
                    CHANNELS 3 Zrotation Xrotation Yrotation
                    JOINT LeftForeArm
                    {
                        OFFSET 25.677923 0.000000 0.000000
                        CHANNELS 3 Zrotation Xrotation Yrotation
                        JOINT LeftHand
                        {
                            OFFSET 26.158810 0.000000 0.000000
                            CHANNELS 3 Zrotation Xrotation Yrotation
                            End Site
                            {
                                OFFSET 13.872223 0.000000 0.000000
                            }
                        }
                    }
                }
            }
            JOINT RightShoulder
            {
                OFFSET -3.700243 16.008181 -0.342244
                CHANNELS 3 Zrotation Xrotation Yrotation
                JOINT RightArm
                {
                    OFFSET -15.804684 0.000000 0.000000
                    CHANNELS 3 Zrotation Xrotation Yrotation
                    JOINT RightForeArm
                    {
                        OFFSET -25.677923 0.000000 0.000000
                        CHANNELS 3 Zrotation Xrotation Yrotation
                        JOINT RightHand
                        {
                            OFFSET -26.158810 0.000000 0.000000
                            CHANNELS 3 Zrotation Xrotation Yrotation
                            End Site
                            {
                                OFFSET -13.872223 0.000000 0.000000
                            }
                        }
                    }
                }
            }
        }
    }
    JOINT LeftUpLeg
    {
        OFFSET 9.248149 0.000000 0.000000
        CHANNELS 3 Zrotation Xrotation Yrotation
        JOINT LeftLeg
        {
            OFFSET -0.000000 -43.254459 0.000000
            CHANNELS 3 Zrotation Xrotation Yrotation
            JOINT LeftFoot
            {
                OFFSET -0.000000 -33.301838 0.000000
                CHANNELS 3 Zrotation Xrotation Yrotation
                JOINT LeftToeBase
                {
                    OFFSET -0.000000 -6.011296 13.872223
                    CHANNELS 3 Zrotation Xrotation Yrotation
                    End Site
                    {
                        OFFSET -0.000000 0.000000 3.699259
                    }
                }
            }
        }
    }
    JOINT RightUpLeg
    {
        OFFSET -9.248149 0.000000 0.000000
        CHANNELS 3 Zrotation Xrotation Yrotation
        JOINT RightLeg
        {
            OFFSET -0.000000 -43.254459 0.000000
            CHANNELS 3 Zrotation Xrotation Yrotation
            JOINT RightFoot
            {
                OFFSET -0.000000 -33.301838 0.000000
                CHANNELS 3 Zrotation Xrotation Yrotation
                JOINT RightToeBase
                {
                    OFFSET -0.000000 -6.011296 13.872223
                    CHANNELS 3 Zrotation Xrotation Yrotation
                    End Site
                    {
                        OFFSET -0.000000 0.000000 3.699259
                    }
                }
            }
        }
    }
}
MOTION
Frames:    9
Frame Time:    0.010000
-28.590246    80.503067    -61.132519    4.965456    -12.548048    -165.757584    8.947518    -6.215139    -11.240674    -7.681398    3.664544    -11.481386    -22.671402    24.110083    4.686385    32.810928    -31.927595    16.958061    3.510822    8.113704    -2.685717    -15.743830    43.892117    -61.384117    16.511551    -51.414288    -76.719475    9.472141    -42.192547    3.667928    2.565832    32.295353    1.792843    59.680721    22.105448    17.249523    -6.699152    -27.000002    -16.887817    -1.448240    -27.807528    -6.793629    20.506874    -32.559940    -0.425374    -9.553734    46.660873    6.035210    0.714320    -13.874485    -4.901337    0.000000    0.000000    0.000000    -15.280958    -25.064365    -23.626099    4.510907    41.263744    12.637859    1.631846    -8.226613    -21.584188    0.000000    0.000000    0.000000    
-28.692944    80.348213    -61.199741    5.406177    -12.092072    -164.850189    8.872498    -5.462284    -11.413771    -7.453676    3.008976    -11.641879    -23.472004    23.623728    4.068930    34.275105    -31.734663    16.960234    5.673516    5.307521    -5.743887    -15.531915    41.640030    -62.066483    15.131005    -48.754471    -82.815498    0.940131    -39.090027    -2.270079    1.813389    31.728798    -0.983378    59.582737    26.245123    13.988012    -4.697379    -27.362040    -13.589064    -0.398715    -27.840750    -5.672545    20.759254    -31.667934    0.048939    -8.498526    44.063286    5.738432    0.344393    -13.356167    -3.828500    0.000000    0.000000    0.000000    -14.745007    -24.559958    -24.487391    3.382107    41.475945    12.852406    1.772120    -8.835793    -21.270569    0.000000    0.000000    0.000000    
-28.787342    80.119507    -61.283855    5.953194    -11.735868    -164.028580    8.749235    -5.048678    -11.366643    -6.726957    2.984554    -11.577725    -24.124027    21.992283    2.992591    34.764362    -30.661137    16.080868    7.628692    2.205757    -9.288266    -15.655461    39.906033    -61.274715    12.627599    -46.389179    -90.731163    -3.795388    -36.622696    -5.664243    0.631742    28.709818    -4.360271    60.129932    30.965456    9.783075    -2.957419    -28.565155    -10.847282    0.336286    -28.823862    -4.801208    21.301622    -31.182255    1.270605    -8.082069    42.114368    5.841958    1.309292    -13.567265    -2.886259    0.000000    0.000000    0.000000    -14.535108    -23.988720    -24.284594    4.350062    41.757679    13.094135    1.194817    -9.955545    -22.493782    0.000000    0.000000    0.000000    
-28.845613    79.852638    -61.427711    6.470628    -11.405437    -163.154984    8.308103    -4.623629    -11.238245    -5.659476    2.959982    -11.427944    -24.188005    20.381805    1.739972    34.317146    -29.626682    14.660594    9.304804    -0.577920    -12.608371    -13.118114    39.161892    -61.762249    10.909804    -46.147911    -97.251907    -8.305573    -36.300022    -9.119634    -0.956660    25.405846    -7.408918    61.703751    34.320122    4.752621    -1.419663    -29.435049    -7.629704    -0.839801    -29.488916    -4.469927    22.004749    -31.142424    2.383170    -7.526688    42.459633    1.939531    1.995242    -15.989716    -1.491737    0.000000    0.000000    0.000000    -14.373852    -23.381224    -24.101078    5.341122    41.967010    13.225941    0.748520    -11.158998    -23.663382    0.000000    0.000000    0.000000    
-28.923038    79.683563    -61.547935    7.001754    -11.349630    -162.616913    7.607524    -4.331875    -10.852618    -4.516769    2.949064    -11.024475    -23.021866    18.553015    0.469517    32.553688    -28.604332    12.766068    11.036271    -3.652892    -15.666422    -1.188772    42.371651    -66.848267    17.208857    -53.947529    -96.443184    -9.019202    -40.087891    -11.377086    -2.027575    22.286795    -10.158031    62.860901    37.510700    -0.863110    -0.102264    -32.938301    -3.381685    -0.447866    -32.926498    -4.365089    22.883150    -31.551792    3.804401    -6.745166    43.971146    -3.332343    0.949436    -17.506504    0.847245    0.000000    0.000000    0.000000    -14.094492    -23.174555    -23.677216    6.028851    41.921711    12.794552    0.469776    -11.800528    -24.126621    0.000000    0.000000    0.000000    
-28.929728    79.732826    -61.721783    7.391156    -11.314864    -162.086884    6.401114    -3.732192    -10.485062    -3.230665    2.119796    -10.634085    -20.981798    18.007505    -0.357712    29.946831    -28.420343    10.950836    12.296748    -6.340991    -18.980417    2.049311    41.993752    -68.567307    17.863806    -55.201176    -98.604836    -9.918212    -40.490784    -10.958065    -2.323966    20.877745    -12.209249    63.044922    38.492962    -5.709312    1.309709    -35.869133    1.373284    -0.713084    -35.853683    -5.584601    23.562010    -32.140938    5.278984    -5.523502    45.547932    -7.621237    -0.600723    -17.272682    1.443947    0.000000    0.000000    0.000000    -13.726302    -22.823879    -23.082739    6.577011    41.403996    11.759791    0.799910    -11.832108    -23.949039    0.000000    0.000000    0.000000    
-29.091093    80.078644    -61.898129    7.349482    -11.668572    -161.687103    5.813747    -3.628036    -11.049708    -3.340503    0.288821    -11.225610    -20.822315    18.975460    0.175314    29.176847    -28.617083    11.050533    12.244613    -7.727393    -20.743870    3.702687    41.825199    -67.816200    18.418465    -55.337090    -101.262642    -8.634849    -39.540199    -8.814666    -3.316441    21.610771    -10.860342    63.099316    36.384689    -8.643704    1.374929    -37.739601    4.044219    -0.899194    -37.740196    -6.086762    23.277773    -32.755508    5.927539    -4.641669    46.184967    -9.402498    -0.092636    -16.084032    0.753909    0.000000    0.000000    0.000000    -13.970520    -22.511976    -22.423309    7.360736    40.337627    10.263899    1.370649    -10.967923    -23.429077    0.000000    0.000000    0.000000    
-29.310263    80.683128    -62.152374    7.428415    -12.087268    -161.520905    5.685471    -3.875832    -11.723560    -3.705326    -1.170895    -11.953996    -21.204292    19.159222    0.739101    29.060173    -28.273079    11.455756    12.005002    -8.964882    -21.284260    5.524090    41.802090    -66.977325    21.294096    -55.789986    -102.015564    -6.214857    -37.150879    -6.531428    -4.158650    22.606960    -9.359790    61.436264    33.029686    -9.429733    0.657441    -38.641380    4.578779    -0.106768    -38.657890    -5.528692    22.992840    -32.884800    4.989137    -5.654778    45.307259    -7.285122    -0.067942    -13.603345    0.006178    0.000000    0.000000    0.000000    -13.938862    -22.140619    -21.671469    7.905279    38.716324    9.010303    2.207093    -9.082476    -22.796881    0.000000    0.000000    0.000000    
-29.588905    81.403122    -62.525135    7.465901    -12.189667    -161.604156    5.455607    -4.120173    -11.993943    -3.779548    -1.767672    -12.248697    -20.889284    18.487206    0.714323    28.463745    -27.633598    11.179022    12.561176    -9.829559    -21.046532    3.446441    39.641422    -65.348457    19.576717    -53.347801    -106.025246    -7.585745    -33.963619    -6.680017    -4.608549    22.848736    -8.731827    58.526848    29.764446    -9.463631    0.767849    -38.358540    4.433069    -0.349941    -38.368443    -5.595058    22.665367    -32.174824    3.183695    -7.005977    43.591267    -4.862772    -0.616594    -11.139509    0.035722    0.000000    0.000000    0.000000    -13.672681    -21.310480    -20.914455    8.103468    36.738571    8.275814    3.156440    -6.702542    -22.105040    0.000000    0.000000    0.000000    
